<svg id="svg" xmlns="http://www.w3.org/2000/svg" xmlns:xlink="http://www.w3.org/1999/xlink" width="400" height="227.13896457765668" viewBox="0, 0, 400,227.13896457765668" version="1.1"><g id="svgg"><path id="path0" d="M68.556 61.075 L 67.684 61.965 68.606 61.228 C 69.114 60.822,69.531 60.417,69.533 60.327 C 69.539 60.082,69.499 60.113,68.556 61.075 M37.875 102.141 C 37.060 102.583,37.109 102.767,37.929 102.343 C 38.289 102.157,38.583 101.959,38.583 101.902 C 38.583 101.761,38.560 101.769,37.875 102.141 M367.535 115.187 C 367.324 115.442,367.358 115.476,367.729 115.379 C 368.275 115.236,368.543 114.877,368.105 114.877 C 367.933 114.877,367.676 115.017,367.535 115.187 M350.398 129.700 C 350.398 133.837,350.427 135.529,350.463 133.460 C 350.499 131.392,350.499 128.008,350.463 125.940 C 350.427 123.872,350.398 125.564,350.398 129.700 M361.249 138.897 C 361.222 147.013,361.272 153.698,361.362 153.754 C 361.511 153.846,361.509 142.929,361.358 129.373 C 361.326 126.496,361.277 130.782,361.249 138.897 M95.147 163.379 C 95.147 178.365,95.173 184.464,95.204 176.931 C 95.236 169.399,95.236 157.137,95.204 149.683 C 95.173 142.229,95.147 148.392,95.147 163.379 M261.465 151.826 C 261.465 159.978,261.493 163.282,261.526 159.167 C 261.559 155.052,261.559 148.381,261.526 144.344 C 261.493 140.306,261.465 143.673,261.465 151.826 M357.602 155.422 C 357.182 155.603,357.183 155.610,357.644 155.625 C 357.906 155.633,358.182 155.542,358.256 155.422 C 358.415 155.165,358.202 155.165,357.602 155.422 M121.739 173.515 C 121.739 182.926,121.765 186.777,121.798 182.071 C 121.831 177.365,121.831 169.665,121.798 164.959 C 121.765 160.253,121.739 164.104,121.739 173.515 M351.265 158.936 C 351.166 159.096,352.446 159.016,352.610 158.852 C 352.671 158.791,352.412 158.755,352.035 158.770 C 351.658 158.785,351.311 158.860,351.265 158.936 M382.997 160.737 C 382.997 161.517,383.095 162.215,383.215 162.289 C 383.352 162.373,383.433 161.896,383.433 161.007 C 383.433 160.227,383.335 159.529,383.215 159.455 C 383.078 159.371,382.997 159.848,382.997 160.737 M40.430 175.041 C 40.430 183.613,40.457 187.120,40.490 182.834 C 40.523 178.548,40.523 171.534,40.490 167.248 C 40.457 162.962,40.430 166.469,40.430 175.041 M175.798 175.477 C 175.798 183.809,175.825 187.218,175.858 183.052 C 175.891 178.886,175.891 172.068,175.858 167.902 C 175.825 163.736,175.798 167.144,175.798 175.477 M148.768 175.804 C 148.768 183.956,148.795 187.260,148.828 183.145 C 148.861 179.030,148.861 172.360,148.828 168.322 C 148.795 164.284,148.768 167.651,148.768 175.804 M360.327 162.088 C 360.327 162.235,361.459 162.646,361.567 162.538 C 361.617 162.489,361.358 162.344,360.992 162.216 C 360.626 162.089,360.327 162.031,360.327 162.088 M392.589 167.825 C 392.145 167.948,392.112 168.003,392.409 168.117 C 392.616 168.196,392.888 168.121,393.035 167.943 C 393.179 167.771,393.259 167.639,393.215 167.651 C 393.170 167.663,392.888 167.741,392.589 167.825 " stroke="none" fill="#ffffff" fill-rule="evenodd"></path><path id="path1" d="M245.410 0.113 C 245.362 0.160,244.199 0.253,242.825 0.320 C 241.451 0.387,240.082 0.488,239.782 0.545 C 239.086 0.679,237.494 0.888,236.512 0.976 C 236.093 1.013,235.161 1.151,234.441 1.283 C 233.722 1.414,232.790 1.565,232.371 1.618 C 231.951 1.671,231.608 1.729,231.608 1.746 C 231.608 1.763,231.411 1.813,231.172 1.857 C 230.932 1.900,230.098 2.060,229.319 2.211 C 228.540 2.363,227.818 2.463,227.715 2.435 C 227.613 2.406,227.417 2.473,227.280 2.585 C 227.142 2.696,226.638 2.841,226.158 2.907 C 225.281 3.029,224.461 3.199,224.360 3.280 C 224.282 3.343,224.090 3.390,223.106 3.588 C 222.627 3.684,222.136 3.821,222.016 3.892 C 221.802 4.018,221.570 4.079,220.708 4.234 C 220.469 4.277,219.880 4.456,219.401 4.631 C 218.921 4.807,218.161 5.018,217.711 5.101 C 217.262 5.184,216.894 5.342,216.894 5.453 C 216.894 5.563,216.757 5.601,216.589 5.537 C 216.421 5.473,216.219 5.525,216.140 5.653 C 216.061 5.781,215.769 5.886,215.491 5.886 C 215.213 5.886,214.434 6.130,213.760 6.428 C 213.086 6.726,212.534 6.924,212.534 6.867 C 212.534 6.811,212.179 6.964,211.745 7.208 C 211.312 7.451,210.904 7.598,210.839 7.533 C 210.774 7.468,210.614 7.500,210.483 7.603 C 210.352 7.706,209.877 7.909,209.428 8.054 C 208.978 8.199,208.610 8.387,208.610 8.472 C 208.610 8.557,208.403 8.642,208.150 8.661 C 207.897 8.680,207.488 8.873,207.241 9.089 C 206.994 9.305,206.858 9.369,206.938 9.230 C 207.019 9.091,206.570 9.240,205.940 9.560 C 205.311 9.880,204.330 10.332,203.760 10.565 C 203.191 10.798,202.725 11.083,202.725 11.198 C 202.725 11.313,202.666 11.349,202.594 11.277 C 202.452 11.135,200.736 11.955,200.521 12.268 C 200.447 12.375,200.324 12.453,200.247 12.441 C 200.020 12.407,197.397 13.770,197.251 13.998 C 197.177 14.112,197.030 14.210,196.924 14.214 C 196.486 14.231,195.749 14.609,195.749 14.817 C 195.749 14.940,195.676 15.019,195.586 14.992 C 195.425 14.945,194.695 15.359,193.518 16.166 C 193.190 16.391,192.675 16.669,192.374 16.784 C 192.072 16.898,191.826 17.092,191.826 17.215 C 191.826 17.338,191.730 17.439,191.614 17.439 C 191.368 17.439,189.395 18.752,189.159 19.074 C 189.071 19.193,188.997 19.214,188.995 19.119 C 188.992 18.953,188.722 19.138,187.934 19.844 C 187.729 20.027,187.074 20.505,186.478 20.905 C 185.882 21.305,185.317 21.768,185.221 21.933 C 185.125 22.099,184.905 22.234,184.732 22.234 C 184.559 22.234,184.295 22.431,184.146 22.670 C 183.996 22.910,183.800 23.106,183.710 23.106 C 183.540 23.106,182.890 23.599,182.202 24.251 C 181.980 24.460,181.700 24.632,181.580 24.632 C 181.460 24.632,181.362 24.729,181.362 24.848 C 181.362 24.967,181.020 25.286,180.602 25.557 C 180.184 25.827,179.841 26.188,179.839 26.358 C 179.838 26.528,179.772 26.603,179.694 26.524 C 179.616 26.446,179.277 26.668,178.942 27.019 C 178.607 27.370,178.132 27.764,177.886 27.896 C 177.640 28.028,177.439 28.225,177.439 28.336 C 177.439 28.592,176.391 29.646,176.136 29.646 C 176.029 29.646,175.878 29.848,175.800 30.095 C 175.721 30.342,175.420 30.652,175.131 30.784 C 174.842 30.916,174.605 31.102,174.605 31.197 C 174.605 31.427,173.545 32.480,173.312 32.480 C 173.212 32.480,172.955 32.749,172.741 33.079 C 172.528 33.409,172.002 34.043,171.572 34.488 C 170.611 35.483,169.841 36.399,168.771 37.820 C 168.320 38.420,167.707 39.170,167.409 39.489 C 166.570 40.384,166.322 40.724,166.322 40.979 C 166.322 41.107,166.175 41.269,165.996 41.338 C 165.817 41.406,165.717 41.538,165.773 41.630 C 165.868 41.784,165.641 42.109,164.626 43.270 C 164.416 43.510,164.108 43.974,163.940 44.301 C 163.773 44.629,163.455 45.091,163.235 45.328 C 163.014 45.565,162.834 45.849,162.834 45.959 C 162.834 46.069,162.687 46.281,162.507 46.431 C 162.327 46.580,162.180 46.862,162.180 47.059 C 162.180 48.234,161.599 48.098,157.094 45.864 C 156.755 45.696,156.381 45.559,156.265 45.559 C 156.148 45.559,155.641 45.371,155.138 45.142 C 154.635 44.913,153.856 44.657,153.406 44.573 C 152.956 44.489,152.589 44.317,152.589 44.190 C 152.589 44.064,152.532 44.017,152.463 44.086 C 152.393 44.155,151.669 43.972,150.854 43.679 C 149.377 43.149,145.560 42.120,144.523 41.972 C 143.804 41.870,142.776 41.650,142.234 41.483 C 141.785 41.345,141.314 41.269,139.870 41.103 C 139.408 41.050,138.771 40.950,138.453 40.882 C 138.135 40.814,137.266 40.718,136.521 40.670 C 135.777 40.621,135.075 40.524,134.962 40.454 C 134.268 40.026,122.957 40.001,117.711 40.417 C 115.398 40.601,115.015 40.650,114.768 40.796 C 114.649 40.867,114.368 40.895,114.146 40.860 C 113.814 40.806,111.711 41.082,110.845 41.293 C 110.725 41.322,110.136 41.430,109.537 41.534 C 108.241 41.758,108.410 41.724,107.466 41.958 C 107.046 42.062,106.556 42.156,106.376 42.166 C 106.087 42.184,102.912 42.872,102.343 43.041 C 102.223 43.076,102.027 43.127,101.907 43.155 C 101.787 43.182,101.499 43.305,101.267 43.430 C 101.035 43.554,100.505 43.701,100.089 43.758 C 99.673 43.814,98.898 44.046,98.367 44.273 C 97.837 44.501,97.236 44.687,97.033 44.687 C 96.830 44.687,96.421 44.857,96.125 45.064 C 95.828 45.272,95.537 45.422,95.477 45.399 C 95.289 45.325,93.440 45.938,92.688 46.322 C 92.293 46.524,91.852 46.710,91.707 46.734 C 91.563 46.759,91.199 46.916,90.899 47.084 C 90.599 47.253,90.200 47.416,90.012 47.448 C 89.823 47.480,89.382 47.656,89.031 47.839 C 88.680 48.022,88.285 48.172,88.154 48.173 C 88.022 48.174,87.737 48.371,87.520 48.610 C 87.303 48.850,86.969 49.049,86.778 49.051 C 86.587 49.054,86.185 49.248,85.886 49.482 C 85.586 49.717,85.120 49.911,84.850 49.913 C 84.580 49.916,84.360 50.000,84.360 50.099 C 84.360 50.198,83.845 50.512,83.215 50.797 C 82.586 51.081,81.919 51.438,81.734 51.591 C 81.548 51.743,80.918 52.122,80.332 52.433 C 79.747 52.745,79.046 53.213,78.774 53.475 C 78.502 53.737,78.201 53.954,78.104 53.958 C 78.008 53.962,77.498 54.256,76.970 54.612 C 76.443 54.968,75.859 55.357,75.674 55.477 C 75.120 55.835,74.761 56.110,74.317 56.512 C 74.086 56.722,73.819 56.894,73.724 56.894 C 73.629 56.894,73.187 57.237,72.742 57.657 C 72.298 58.076,71.886 58.420,71.828 58.420 C 71.729 58.420,71.495 58.601,70.357 59.564 C 70.109 59.774,69.823 59.946,69.721 59.946 C 69.620 59.946,69.535 60.068,69.533 60.218 C 69.531 60.368,69.119 60.831,68.618 61.247 C 68.118 61.663,67.790 61.859,67.891 61.683 C 68.138 61.251,67.782 61.622,67.176 62.427 C 66.916 62.773,66.703 62.976,66.703 62.878 C 66.703 62.722,64.842 64.600,63.850 65.755 C 63.660 65.977,63.267 66.360,62.978 66.608 C 62.689 66.855,62.207 67.388,61.907 67.793 C 61.608 68.198,61.142 68.724,60.872 68.963 C 60.602 69.202,60.381 69.482,60.381 69.585 C 60.381 69.687,59.993 70.176,59.518 70.670 C 59.043 71.164,58.706 71.651,58.768 71.751 C 58.830 71.852,58.723 71.935,58.529 71.935 C 58.335 71.935,58.233 72.027,58.302 72.139 C 58.372 72.252,58.197 72.571,57.913 72.848 C 57.630 73.125,57.178 73.719,56.910 74.169 C 56.642 74.619,56.332 74.986,56.222 74.986 C 56.112 74.986,56.022 75.134,56.022 75.313 C 56.022 75.493,55.924 75.640,55.804 75.640 C 55.684 75.640,55.586 75.791,55.586 75.976 C 55.586 76.311,54.787 77.580,54.402 77.857 C 54.291 77.938,54.175 78.173,54.144 78.380 C 54.114 78.588,53.978 78.826,53.842 78.910 C 53.706 78.994,53.574 79.200,53.549 79.368 C 53.524 79.536,53.261 80.000,52.964 80.400 C 52.668 80.799,52.420 81.192,52.414 81.272 C 52.408 81.352,52.039 82.128,51.594 82.997 C 51.149 83.866,50.860 84.579,50.951 84.581 C 51.042 84.583,50.970 84.677,50.790 84.791 C 50.610 84.905,50.456 85.075,50.448 85.169 C 50.439 85.263,50.307 85.635,50.154 85.995 C 49.527 87.470,49.205 88.195,49.015 88.565 C 48.904 88.779,48.882 89.074,48.965 89.219 C 49.048 89.364,49.036 89.410,48.938 89.321 C 48.748 89.149,47.926 91.328,48.084 91.584 C 48.136 91.668,48.026 91.889,47.839 92.076 C 47.652 92.262,47.519 92.540,47.544 92.693 C 47.588 92.960,47.501 93.257,47.064 94.349 C 46.952 94.627,46.917 94.946,46.986 95.057 C 47.054 95.168,47.017 95.259,46.904 95.259 C 46.716 95.259,46.577 95.726,46.320 97.221 C 46.068 98.696,45.913 98.965,45.315 98.965 C 45.041 98.965,44.937 99.058,45.034 99.216 C 45.133 99.375,45.094 99.409,44.929 99.306 C 44.785 99.218,44.427 99.303,44.132 99.496 C 43.838 99.689,43.597 99.792,43.597 99.725 C 43.597 99.658,43.376 99.725,43.106 99.873 C 42.837 100.021,42.518 100.160,42.398 100.180 C 42.203 100.214,40.972 100.740,39.455 101.439 C 39.155 101.577,38.580 101.909,38.176 102.177 C 37.772 102.445,37.355 102.611,37.249 102.545 C 37.144 102.480,37.057 102.547,37.057 102.694 C 37.057 102.841,36.995 102.898,36.918 102.822 C 36.842 102.746,36.508 102.876,36.176 103.113 C 35.844 103.349,35.417 103.542,35.225 103.542 C 35.034 103.542,34.877 103.616,34.877 103.706 C 34.877 103.796,34.288 104.156,33.570 104.506 C 32.851 104.857,32.077 105.317,31.850 105.529 C 31.622 105.740,31.377 105.854,31.304 105.782 C 31.231 105.709,31.172 105.764,31.172 105.904 C 31.172 106.044,31.021 106.158,30.838 106.158 C 30.654 106.158,30.448 106.305,30.379 106.484 C 30.310 106.663,30.177 106.762,30.084 106.704 C 29.990 106.646,29.792 106.745,29.644 106.923 C 29.496 107.102,29.287 107.248,29.180 107.248 C 29.073 107.248,28.226 107.840,27.299 108.563 C 26.372 109.287,25.334 110.091,24.992 110.349 C 24.650 110.608,24.081 111.090,23.728 111.420 C 23.374 111.750,23.016 112.037,22.932 112.058 C 22.563 112.148,22.032 112.641,22.163 112.772 C 22.242 112.851,22.190 112.916,22.046 112.916 C 21.720 112.916,16.028 118.601,15.172 119.782 C 14.824 120.262,14.432 120.752,14.300 120.872 C 14.168 120.992,13.717 121.563,13.297 122.140 C 12.877 122.718,12.313 123.425,12.044 123.711 C 11.774 123.997,11.553 124.286,11.553 124.354 C 11.553 124.547,10.374 126.313,10.191 126.394 C 10.101 126.434,10.027 126.606,10.027 126.776 C 10.027 126.946,9.929 127.084,9.809 127.084 C 9.689 127.084,9.591 127.189,9.591 127.317 C 9.591 127.445,9.346 127.871,9.046 128.264 C 8.747 128.657,8.501 129.050,8.501 129.137 C 8.501 129.224,8.219 129.705,7.874 130.206 C 7.530 130.707,7.244 131.166,7.241 131.226 C 7.224 131.491,6.628 132.670,6.379 132.931 C 6.227 133.090,6.091 133.359,6.076 133.531 C 6.017 134.209,5.986 134.299,5.766 134.449 C 5.565 134.586,4.643 136.789,4.502 137.471 C 4.473 137.609,4.345 137.854,4.218 138.016 C 3.885 138.438,3.284 140.323,3.434 140.473 C 3.504 140.543,3.465 140.599,3.347 140.599 C 3.178 140.599,2.803 141.670,2.489 143.052 C 2.469 143.142,2.425 143.289,2.392 143.379 C 2.359 143.469,2.314 143.640,2.293 143.760 C 2.272 143.880,2.142 144.371,2.006 144.850 C 1.869 145.330,1.720 145.918,1.674 146.158 C 1.629 146.398,1.533 146.741,1.462 146.921 C 1.391 147.101,1.284 147.591,1.226 148.011 C 1.167 148.431,1.062 149.019,0.991 149.319 C 0.921 149.619,0.809 150.302,0.742 150.838 C 0.676 151.373,0.578 151.880,0.526 151.965 C 0.016 152.791,-0.049 167.847,0.458 167.847 C 0.532 167.847,0.581 168.068,0.569 168.338 C 0.537 168.989,1.103 172.911,1.267 173.184 C 1.338 173.302,1.413 173.547,1.434 173.729 C 1.470 174.048,1.574 174.540,1.853 175.695 C 1.925 175.995,2.033 176.478,2.093 176.769 C 2.153 177.061,2.265 177.400,2.341 177.523 C 2.417 177.646,2.504 177.979,2.535 178.263 C 2.565 178.547,2.689 178.899,2.810 179.044 C 2.931 179.190,3.087 179.635,3.157 180.034 C 3.227 180.432,3.434 181.115,3.616 181.551 C 3.798 181.987,3.940 182.369,3.931 182.400 C 3.922 182.431,4.067 182.750,4.252 183.109 C 4.437 183.467,4.542 183.760,4.485 183.760 C 4.428 183.760,4.671 184.343,5.025 185.056 C 5.378 185.769,5.668 186.443,5.668 186.555 C 5.668 186.667,5.814 186.880,5.992 187.028 C 6.171 187.176,6.272 187.370,6.217 187.459 C 6.162 187.548,6.392 188.053,6.727 188.582 C 7.062 189.110,7.296 189.664,7.247 189.812 C 7.198 189.961,7.263 190.082,7.393 190.082 C 7.523 190.082,7.629 190.229,7.629 190.409 C 7.629 190.589,7.733 190.736,7.860 190.736 C 7.987 190.736,8.034 190.828,7.965 190.940 C 7.895 191.053,8.012 191.246,8.224 191.370 C 8.437 191.493,8.530 191.597,8.432 191.601 C 8.334 191.605,8.463 191.902,8.719 192.262 C 8.975 192.621,9.105 192.919,9.007 192.923 C 8.909 192.927,9.025 193.102,9.264 193.312 C 9.504 193.522,9.732 193.837,9.771 194.013 C 9.810 194.189,9.933 194.365,10.044 194.405 C 10.154 194.445,10.245 194.578,10.245 194.701 C 10.245 194.907,11.515 196.663,12.303 197.548 C 12.490 197.757,12.643 198.003,12.643 198.093 C 12.643 198.183,12.864 198.518,13.134 198.837 C 14.223 200.129,14.387 200.336,14.387 200.420 C 14.387 200.549,15.231 201.529,16.349 202.697 C 16.888 203.261,17.657 204.136,18.057 204.641 C 18.457 205.147,18.890 205.496,19.017 205.417 C 19.145 205.338,19.187 205.374,19.111 205.498 C 19.035 205.621,19.347 205.982,19.804 206.299 C 20.262 206.617,20.931 207.193,21.291 207.580 C 22.440 208.816,23.753 209.926,24.323 210.143 C 24.627 210.259,24.827 210.434,24.766 210.532 C 24.705 210.630,24.969 210.894,25.352 211.119 C 25.736 211.345,26.160 211.632,26.295 211.759 C 26.430 211.886,26.764 212.136,27.037 212.316 C 27.310 212.496,27.687 212.815,27.875 213.025 C 28.063 213.234,28.397 213.406,28.617 213.406 C 28.837 213.406,28.957 213.504,28.883 213.624 C 28.809 213.744,28.877 213.844,29.033 213.847 C 29.190 213.850,30.043 214.340,30.929 214.937 C 31.815 215.534,32.661 216.022,32.810 216.022 C 32.958 216.022,33.208 216.175,33.363 216.363 C 33.639 216.695,34.831 217.411,35.139 217.430 C 35.223 217.435,35.414 217.561,35.564 217.711 C 35.714 217.861,35.964 217.984,36.120 217.984 C 36.276 217.984,36.403 218.088,36.403 218.214 C 36.403 218.341,36.501 218.385,36.621 218.311 C 36.741 218.237,36.839 218.286,36.839 218.420 C 36.839 218.554,36.937 218.603,37.057 218.529 C 37.177 218.455,37.275 218.476,37.275 218.577 C 37.275 218.763,38.561 219.371,38.851 219.321 C 39.077 219.283,40.740 220.168,40.886 220.404 C 40.952 220.512,41.246 220.599,41.539 220.599 C 41.831 220.599,42.071 220.698,42.071 220.817 C 42.071 220.937,42.179 221.035,42.310 221.035 C 42.442 221.035,42.859 221.172,43.237 221.339 C 44.565 221.925,45.777 222.338,45.777 222.206 C 45.777 222.132,45.924 222.194,46.104 222.343 C 46.283 222.493,46.432 222.529,46.434 222.425 C 46.436 222.320,46.509 222.344,46.597 222.478 C 46.685 222.612,47.346 222.898,48.065 223.114 C 49.889 223.660,49.980 223.684,50.409 223.716 C 50.619 223.732,50.790 223.822,50.790 223.916 C 50.790 224.010,51.033 224.087,51.331 224.087 C 51.628 224.087,52.241 224.231,52.693 224.406 C 53.145 224.582,53.809 224.753,54.169 224.788 C 54.529 224.822,54.877 224.922,54.943 225.010 C 55.008 225.098,55.450 225.209,55.923 225.257 C 56.397 225.305,56.952 225.414,57.156 225.498 C 57.360 225.583,57.623 225.592,57.740 225.520 C 57.858 225.447,58.008 225.476,58.075 225.584 C 58.141 225.692,58.758 225.850,59.445 225.936 C 60.131 226.022,60.893 226.135,61.137 226.187 C 61.897 226.350,63.066 226.508,64.087 226.586 C 64.627 226.627,65.706 226.744,66.485 226.845 C 68.337 227.087,331.881 227.087,333.733 226.845 C 334.512 226.744,335.591 226.627,336.131 226.586 C 337.152 226.508,338.321 226.350,339.081 226.187 C 339.325 226.135,340.087 226.022,340.773 225.936 C 341.460 225.850,342.073 225.698,342.135 225.597 C 342.197 225.496,342.388 225.468,342.558 225.533 C 342.728 225.598,342.985 225.579,343.128 225.490 C 343.272 225.402,343.787 225.293,344.273 225.250 C 344.758 225.206,345.210 225.098,345.275 225.010 C 345.341 224.922,345.689 224.822,346.049 224.788 C 346.409 224.753,347.073 224.582,347.525 224.406 C 347.977 224.231,348.590 224.087,348.887 224.087 C 349.185 224.087,349.428 224.010,349.428 223.916 C 349.428 223.822,349.599 223.734,349.809 223.721 C 350.718 223.664,353.408 222.780,353.621 222.469 C 353.709 222.340,353.782 222.320,353.784 222.425 C 353.786 222.529,353.935 222.493,354.114 222.343 C 354.294 222.194,354.441 222.126,354.441 222.191 C 354.441 222.330,356.737 221.546,357.382 221.187 C 357.623 221.053,357.894 220.964,357.984 220.989 C 358.074 221.015,358.147 220.937,358.147 220.817 C 358.147 220.698,358.342 220.599,358.580 220.599 C 358.818 220.599,359.496 220.302,360.086 219.939 C 360.676 219.576,361.242 219.292,361.343 219.309 C 361.691 219.366,362.507 219.022,362.507 218.817 C 362.507 218.704,362.605 218.672,362.725 218.747 C 362.845 218.821,362.943 218.772,362.943 218.638 C 362.943 218.504,363.033 218.450,363.143 218.518 C 363.253 218.586,363.492 218.494,363.673 218.313 C 363.854 218.132,364.087 217.984,364.192 217.984 C 364.296 217.984,364.504 217.861,364.654 217.711 C 364.804 217.561,364.995 217.435,365.079 217.430 C 365.387 217.411,366.579 216.695,366.855 216.363 C 367.010 216.175,367.260 216.022,367.408 216.022 C 367.557 216.022,368.403 215.534,369.289 214.937 C 370.175 214.340,371.028 213.850,371.185 213.847 C 371.341 213.844,371.409 213.744,371.335 213.624 C 371.261 213.504,371.398 213.406,371.638 213.406 C 371.879 213.406,372.155 213.281,372.251 213.128 C 372.347 212.976,372.670 212.693,372.970 212.499 C 373.450 212.190,373.750 211.955,374.868 211.012 C 375.013 210.890,375.234 210.790,375.359 210.790 C 375.484 210.790,375.586 210.643,375.586 210.463 C 375.586 210.283,375.732 210.136,375.912 210.136 C 376.091 210.136,376.725 209.659,377.321 209.075 C 377.917 208.492,378.449 208.059,378.504 208.113 C 378.558 208.167,378.710 208.010,378.842 207.764 C 378.974 207.518,379.546 206.962,380.113 206.529 C 380.680 206.096,381.149 205.627,381.154 205.486 C 381.160 205.346,381.273 205.253,381.406 205.279 C 381.539 205.305,381.906 204.989,382.220 204.577 C 382.535 204.164,383.255 203.343,383.821 202.751 C 385.238 201.270,385.831 200.570,385.831 200.380 C 385.832 200.291,386.224 199.777,386.703 199.237 C 387.182 198.698,387.574 198.187,387.575 198.103 C 387.575 198.018,387.796 197.712,388.065 197.422 C 388.771 196.664,390.366 194.371,390.448 193.997 C 390.486 193.823,390.665 193.565,390.845 193.424 C 391.025 193.284,391.183 193.087,391.196 192.988 C 391.256 192.552,391.828 191.390,391.982 191.390 C 392.076 191.390,392.153 191.261,392.153 191.104 C 392.153 190.947,392.359 190.597,392.610 190.326 C 392.862 190.056,393.014 189.780,392.947 189.713 C 392.880 189.647,393.078 189.261,393.387 188.856 C 393.696 188.451,393.876 188.120,393.787 188.120 C 393.698 188.120,393.747 187.973,393.896 187.793 C 394.046 187.613,394.100 187.466,394.016 187.466 C 393.933 187.466,394.068 187.207,394.317 186.892 C 394.565 186.576,394.768 186.222,394.768 186.106 C 394.768 185.990,394.997 185.439,395.277 184.882 C 395.557 184.325,395.803 183.771,395.825 183.651 C 395.906 183.201,396.595 181.461,396.799 181.194 C 396.915 181.041,396.951 180.856,396.878 180.784 C 396.805 180.711,396.861 180.443,397.003 180.189 C 397.144 179.935,397.272 179.678,397.286 179.619 C 397.301 179.559,397.375 179.362,397.451 179.183 C 397.527 179.003,397.619 178.610,397.656 178.311 C 397.692 178.011,397.799 177.643,397.893 177.493 C 397.987 177.343,398.003 177.123,397.929 177.003 C 397.855 176.883,397.882 176.785,397.989 176.785 C 398.096 176.785,398.192 176.662,398.202 176.512 C 398.213 176.362,398.284 175.995,398.360 175.695 C 398.437 175.395,398.554 174.856,398.620 174.496 C 398.780 173.630,398.821 173.466,398.972 173.079 C 399.126 172.685,399.545 170.081,399.674 168.719 C 399.725 168.180,399.832 167.322,399.912 166.812 C 400.050 165.930,399.800 165.545,399.453 166.107 C 399.378 166.229,399.236 166.279,399.138 166.218 C 399.040 166.158,398.850 166.241,398.715 166.402 C 398.571 166.576,398.235 166.651,397.895 166.586 C 397.565 166.523,397.373 166.564,397.446 166.681 C 397.516 166.794,397.310 166.876,396.988 166.864 C 396.666 166.852,396.262 166.946,396.089 167.072 C 395.841 167.254,395.814 167.233,395.963 166.975 C 396.097 166.743,396.026 166.758,395.715 167.030 C 395.475 167.240,395.060 167.411,394.793 167.411 C 394.525 167.411,394.366 167.508,394.439 167.626 C 394.521 167.758,394.332 167.793,393.950 167.716 C 393.530 167.632,393.235 167.703,393.044 167.933 C 392.831 168.189,392.658 168.219,392.348 168.053 C 392.034 167.885,391.935 167.905,391.935 168.136 C 391.935 168.348,391.759 168.407,391.357 168.331 C 390.905 168.244,390.820 168.286,390.963 168.524 C 391.113 168.774,391.086 168.779,390.810 168.556 C 390.535 168.334,390.383 168.363,389.972 168.720 C 389.396 169.220,389.224 169.274,389.452 168.883 C 389.540 168.733,389.409 168.788,389.161 169.005 C 388.900 169.234,388.678 169.304,388.633 169.171 C 388.579 169.011,388.307 169.011,387.733 169.169 C 387.280 169.294,386.967 169.490,387.037 169.603 C 387.107 169.716,387.012 169.809,386.825 169.809 C 386.638 169.809,386.485 169.711,386.485 169.591 C 386.485 169.471,386.381 169.373,386.254 169.373 C 386.127 169.373,386.082 169.469,386.154 169.585 C 386.320 169.853,385.376 170.106,383.802 170.217 C 383.585 170.233,383.455 170.322,383.513 170.417 C 383.572 170.511,383.437 170.588,383.215 170.588 C 382.993 170.588,382.869 170.494,382.940 170.379 C 383.013 170.261,382.913 170.231,382.706 170.310 C 382.507 170.387,382.343 170.363,382.343 170.258 C 382.343 170.152,382.101 170.092,381.804 170.125 C 381.508 170.157,381.318 170.100,381.381 169.997 C 381.445 169.894,381.393 169.797,381.266 169.782 C 381.139 169.767,380.937 169.730,380.817 169.700 C 380.698 169.670,380.496 169.634,380.369 169.619 C 380.242 169.604,380.186 169.514,380.245 169.419 C 380.303 169.323,380.051 169.223,379.684 169.195 C 379.316 169.167,378.717 168.931,378.351 168.671 C 377.986 168.411,377.755 168.308,377.839 168.444 C 377.926 168.584,377.711 168.550,377.336 168.363 C 376.976 168.183,376.567 168.107,376.427 168.193 C 376.275 168.287,376.231 168.256,376.317 168.117 C 376.403 167.977,376.176 167.822,375.751 167.731 C 375.361 167.647,374.918 167.480,374.768 167.360 C 374.619 167.239,374.496 167.197,374.496 167.266 C 374.496 167.335,373.981 167.152,373.351 166.859 C 372.722 166.566,372.030 166.325,371.813 166.324 C 371.596 166.322,371.466 166.245,371.524 166.150 C 371.582 166.056,371.318 165.983,370.938 165.987 C 370.557 165.991,370.120 165.876,369.966 165.731 C 369.813 165.587,369.543 165.523,369.367 165.591 C 369.191 165.659,369.046 165.606,369.046 165.473 C 369.046 165.340,368.893 165.232,368.706 165.232 C 368.520 165.232,368.422 165.143,368.489 165.034 C 368.556 164.925,368.399 164.892,368.141 164.959 C 367.830 165.041,367.721 165.001,367.819 164.841 C 367.914 164.688,367.808 164.631,367.526 164.686 C 367.283 164.732,367.084 164.668,367.084 164.542 C 367.084 164.416,366.937 164.369,366.757 164.439 C 366.578 164.508,366.431 164.469,366.431 164.353 C 366.431 164.237,366.229 164.142,365.982 164.142 C 365.695 164.142,365.590 164.050,365.690 163.887 C 365.794 163.719,365.733 163.676,365.512 163.761 C 365.327 163.832,365.066 163.780,364.931 163.645 C 364.750 163.464,364.687 163.469,364.687 163.662 C 364.687 163.806,364.583 163.924,364.456 163.924 C 364.329 163.924,364.286 163.826,364.360 163.706 C 364.474 163.520,363.864 163.377,363.324 163.462 C 363.234 163.476,363.161 163.399,363.161 163.291 C 363.161 163.091,361.885 162.526,361.573 162.587 C 361.480 162.605,360.962 162.419,360.422 162.174 C 359.883 161.928,359.353 161.781,359.245 161.848 C 359.137 161.914,358.978 161.854,358.891 161.714 C 358.786 161.544,358.829 161.517,359.019 161.635 C 359.212 161.754,359.252 161.726,359.142 161.549 C 359.018 161.348,358.908 161.347,358.673 161.542 C 358.444 161.731,358.365 161.733,358.365 161.547 C 358.365 161.288,357.451 160.861,356.785 160.809 C 356.575 160.793,356.402 160.628,356.400 160.444 C 356.397 160.148,356.372 160.147,356.185 160.436 C 356.069 160.616,355.972 160.654,355.971 160.520 C 355.969 160.387,355.722 160.305,355.422 160.338 C 355.123 160.371,354.804 160.284,354.714 160.144 C 354.487 159.793,353.134 159.326,353.134 159.599 C 353.134 159.717,352.979 159.659,352.791 159.471 C 352.478 159.158,351.834 159.009,351.281 159.120 C 351.161 159.145,351.144 159.083,351.243 158.984 C 351.451 158.776,353.364 158.714,353.237 158.920 C 353.190 158.995,353.678 159.048,354.321 159.038 C 354.964 159.028,355.444 159.093,355.389 159.183 C 355.333 159.272,355.416 159.353,355.573 159.362 C 355.730 159.371,356.085 159.420,356.362 159.472 C 356.721 159.539,356.820 159.487,356.706 159.292 C 356.618 159.142,356.735 159.177,356.965 159.369 C 357.242 159.600,357.736 159.704,358.420 159.676 C 358.989 159.652,359.455 159.715,359.455 159.816 C 359.455 159.917,359.559 160.000,359.686 160.000 C 359.813 160.000,359.850 159.892,359.769 159.760 C 359.668 159.598,359.776 159.604,360.100 159.777 C 360.364 159.918,361.034 160.078,361.589 160.133 C 362.144 160.187,362.674 160.351,362.767 160.497 C 362.899 160.704,362.937 160.703,362.939 160.490 C 362.941 160.341,363.090 160.218,363.270 160.218 C 363.450 160.218,363.597 160.295,363.597 160.389 C 363.597 160.484,363.940 160.549,364.360 160.535 C 364.779 160.521,365.123 160.570,365.123 160.643 C 365.123 160.717,365.373 160.798,365.680 160.823 C 366.073 160.855,366.189 160.789,366.074 160.598 C 365.966 160.419,366.038 160.430,366.283 160.629 C 366.487 160.795,367.139 160.946,367.732 160.964 C 368.324 160.983,368.879 161.068,368.964 161.153 C 369.049 161.238,369.452 161.308,369.858 161.308 C 370.265 161.308,370.543 161.397,370.475 161.507 C 370.407 161.616,370.508 161.683,370.698 161.655 C 370.888 161.627,371.132 161.464,371.240 161.293 C 371.358 161.107,371.439 161.083,371.441 161.234 C 371.444 161.482,372.298 161.691,373.864 161.828 C 374.295 161.865,374.761 161.965,374.899 162.051 C 375.037 162.136,375.150 162.166,375.150 162.118 C 375.150 162.070,375.591 162.098,376.131 162.180 C 376.785 162.279,377.113 162.249,377.115 162.091 C 377.117 161.960,377.213 162.000,377.330 162.180 C 377.446 162.360,377.543 162.432,377.544 162.340 C 377.546 162.249,377.905 162.323,378.341 162.506 C 378.926 162.750,379.328 162.784,379.867 162.635 C 380.480 162.466,380.599 162.491,380.599 162.786 C 380.599 163.061,380.658 163.081,380.861 162.877 C 381.169 162.569,381.553 162.525,381.371 162.819 C 381.302 162.932,381.515 162.992,381.849 162.954 C 382.181 162.916,382.579 162.987,382.734 163.112 C 383.194 163.482,383.600 162.933,383.264 162.395 C 382.861 161.749,382.909 159.346,383.325 159.346 C 383.616 159.346,383.647 157.022,383.598 139.237 L 383.542 119.128 382.452 119.166 C 380.866 119.221,380.268 119.336,380.310 119.577 C 380.331 119.694,379.796 119.798,379.122 119.809 C 378.412 119.820,377.861 119.933,377.813 120.077 C 377.765 120.219,377.516 120.273,377.232 120.201 C 376.909 120.120,376.692 120.187,376.613 120.393 C 376.537 120.593,376.298 120.672,375.964 120.608 C 375.655 120.549,375.293 120.651,375.091 120.853 C 374.689 121.255,374.399 121.314,374.626 120.947 C 374.713 120.806,374.686 120.754,374.566 120.829 C 374.347 120.964,373.087 121.239,372.589 121.260 C 372.439 121.266,372.316 121.329,372.316 121.399 C 372.316 121.469,372.071 121.549,371.771 121.576 C 370.512 121.693,370.354 121.742,370.354 122.009 C 370.354 122.163,370.250 122.289,370.123 122.289 C 369.996 122.289,369.963 122.176,370.048 122.037 C 370.146 121.879,370.108 121.845,369.945 121.946 C 369.802 122.034,369.327 122.150,368.889 122.204 C 368.451 122.259,367.981 122.396,367.845 122.509 C 367.709 122.622,367.384 122.673,367.123 122.623 C 366.862 122.573,366.649 122.632,366.649 122.755 C 366.649 122.884,366.328 122.935,365.888 122.876 C 365.463 122.819,365.181 122.860,365.249 122.971 C 365.316 123.079,365.477 123.102,365.607 123.022 C 365.745 122.936,365.781 122.976,365.694 123.118 C 365.612 123.251,365.391 123.301,365.203 123.228 C 365.015 123.156,364.774 123.234,364.668 123.401 C 364.507 123.656,364.475 123.656,364.472 123.407 C 364.470 123.205,364.380 123.173,364.196 123.310 C 364.046 123.422,363.704 123.496,363.435 123.476 C 363.166 123.455,362.839 123.568,362.708 123.726 C 362.566 123.897,362.233 123.967,361.888 123.898 L 361.308 123.782 361.417 138.860 C 361.477 147.153,361.477 154.003,361.417 154.081 C 361.357 154.159,361.112 154.257,360.872 154.299 C 360.632 154.340,360.115 154.508,359.724 154.671 C 359.332 154.834,358.974 154.947,358.929 154.922 C 358.884 154.898,358.644 155.061,358.395 155.286 C 358.127 155.529,357.764 155.648,357.500 155.579 C 357.257 155.515,357.057 155.563,357.057 155.684 C 357.057 155.806,356.899 155.844,356.706 155.770 C 356.477 155.682,356.391 155.731,356.460 155.910 C 356.526 156.082,356.361 156.198,356.019 156.219 C 355.374 156.258,354.444 156.707,354.057 157.166 C 353.905 157.346,353.794 157.395,353.810 157.275 C 353.876 156.777,353.759 156.778,353.219 157.278 C 352.906 157.568,352.588 157.796,352.511 157.787 C 352.434 157.777,352.322 157.788,352.262 157.813 C 352.148 157.858,351.264 158.017,350.790 158.077 C 350.640 158.095,350.518 158.242,350.518 158.401 C 350.518 158.588,350.224 158.701,349.700 158.716 C 347.328 158.784,346.832 158.850,345.831 159.229 C 344.733 159.645,343.227 160.974,343.449 161.333 C 343.514 161.439,343.484 161.526,343.382 161.526 C 343.150 161.526,342.406 163.891,342.560 164.140 C 342.622 164.240,342.587 164.355,342.481 164.396 C 342.376 164.436,342.222 165.253,342.138 166.213 C 341.961 168.251,341.853 169.147,341.685 169.973 C 341.618 170.302,341.468 171.063,341.352 171.662 C 341.136 172.777,340.994 173.364,340.916 173.460 C 340.842 173.553,340.781 173.806,340.605 174.768 C 340.511 175.278,340.345 175.695,340.235 175.695 C 340.125 175.695,340.060 175.817,340.089 175.967 C 340.119 176.117,339.980 176.546,339.781 176.921 C 339.581 177.295,339.479 177.663,339.555 177.738 C 339.630 177.813,339.593 177.875,339.473 177.875 C 339.353 177.875,339.255 178.001,339.255 178.155 C 339.255 178.483,338.143 180.434,337.854 180.612 C 337.745 180.679,337.657 180.892,337.657 181.084 C 337.657 181.277,337.512 181.590,337.336 181.780 C 337.160 181.970,336.440 182.812,335.737 183.651 C 335.034 184.490,333.894 185.668,333.202 186.267 C 332.511 186.866,331.815 187.480,331.656 187.629 C 331.497 187.779,331.273 187.902,331.159 187.902 C 331.046 187.902,330.831 188.048,330.683 188.226 C 330.535 188.405,330.334 188.501,330.236 188.441 C 330.138 188.380,330.000 188.424,329.929 188.539 C 329.770 188.796,327.077 190.082,326.696 190.082 C 326.544 190.082,326.201 190.234,325.934 190.421 C 325.668 190.608,325.450 190.694,325.450 190.612 C 325.450 190.531,325.302 190.586,325.123 190.736 C 324.943 190.885,324.796 190.958,324.796 190.898 C 324.796 190.839,324.183 190.932,323.433 191.106 C 322.684 191.280,321.826 191.448,321.526 191.481 C 321.226 191.513,320.932 191.565,320.872 191.596 C 320.698 191.687,319.289 191.771,315.041 191.945 L 311.063 192.108 311.063 181.395 L 311.063 170.681 311.662 170.659 C 311.992 170.647,312.899 170.615,313.678 170.588 C 315.543 170.522,318.692 169.455,318.692 168.888 C 318.692 168.783,319.032 168.348,319.447 167.921 C 319.862 167.493,320.189 167.081,320.174 167.005 C 320.160 166.929,320.264 166.585,320.405 166.241 C 320.547 165.896,320.683 165.382,320.706 165.096 C 320.730 164.811,320.820 164.578,320.906 164.578 C 320.992 164.578,321.064 164.406,321.064 164.196 C 321.066 163.834,321.116 163.199,321.422 159.673 C 321.495 158.834,321.600 157.559,321.657 156.839 C 321.773 155.374,321.828 154.949,322.024 154.005 C 322.098 153.646,322.225 152.861,322.306 152.262 C 322.512 150.721,322.541 150.558,322.671 150.191 C 323.364 148.224,323.549 147.793,323.700 147.793 C 323.797 147.793,323.938 147.546,324.014 147.245 C 324.162 146.655,324.336 146.415,325.971 144.544 C 327.156 143.190,328.516 141.918,328.787 141.912 C 328.884 141.909,328.902 141.809,328.828 141.689 C 328.754 141.569,328.804 141.471,328.939 141.471 C 329.074 141.471,329.497 141.240,329.878 140.958 C 331.775 139.554,335.600 138.009,338.093 137.640 C 338.512 137.578,339.150 137.475,339.510 137.412 C 339.869 137.348,342.420 137.244,345.177 137.179 C 347.935 137.115,350.213 137.043,350.240 137.019 C 350.268 136.996,350.297 133.526,350.305 129.309 C 350.314 125.092,350.389 121.656,350.474 121.674 C 350.609 121.702,351.225 121.486,352.262 121.048 C 352.441 120.972,352.657 120.901,352.741 120.891 C 352.825 120.880,353.016 120.749,353.166 120.599 C 353.316 120.450,353.571 120.327,353.733 120.327 C 353.894 120.327,354.415 120.139,354.889 119.910 C 355.363 119.681,355.696 119.583,355.628 119.692 C 355.434 120.007,355.748 119.923,356.107 119.564 C 356.287 119.384,356.629 119.237,356.868 119.237 C 357.143 119.237,357.243 119.144,357.143 118.982 C 357.035 118.807,357.108 118.774,357.376 118.877 C 357.591 118.959,357.897 118.918,358.056 118.786 C 358.216 118.654,358.448 118.609,358.574 118.686 C 358.699 118.764,358.801 118.674,358.801 118.487 C 358.801 118.114,358.774 118.124,359.966 118.050 C 360.427 118.021,360.882 117.871,360.978 117.715 C 361.074 117.560,361.457 117.422,361.829 117.409 C 362.256 117.393,362.506 117.270,362.506 117.075 C 362.507 116.906,362.572 116.832,362.653 116.912 C 362.733 116.993,362.995 116.886,363.235 116.676 C 363.475 116.466,363.600 116.417,363.512 116.567 C 363.288 116.951,363.705 116.907,364.033 116.512 C 364.182 116.332,364.543 116.185,364.835 116.185 C 365.134 116.185,365.307 116.090,365.232 115.967 C 365.095 115.746,365.486 115.669,366.376 115.741 C 366.714 115.768,366.872 115.657,366.884 115.383 C 366.895 115.132,366.943 115.091,367.015 115.272 C 367.105 115.495,367.219 115.477,367.535 115.191 C 367.784 114.966,368.156 114.865,368.494 114.929 C 368.866 115.001,369.046 114.938,369.046 114.738 C 369.046 114.575,369.120 114.453,369.210 114.467 C 369.300 114.481,369.422 114.474,369.482 114.451 C 369.542 114.428,369.832 114.365,370.127 114.311 C 370.421 114.257,370.716 114.132,370.781 114.033 C 370.846 113.934,371.118 113.871,371.386 113.893 C 371.733 113.921,371.812 113.860,371.662 113.678 C 371.512 113.497,371.591 113.436,371.938 113.464 C 372.206 113.486,372.483 113.415,372.554 113.307 C 372.625 113.199,372.923 113.086,373.217 113.054 C 373.511 113.023,373.870 112.924,374.015 112.835 C 374.159 112.745,374.365 112.726,374.471 112.791 C 374.670 112.914,375.217 112.401,375.058 112.242 C 375.009 112.193,375.312 112.128,375.730 112.097 C 377.106 111.996,377.428 110.778,376.089 110.743 C 375.946 110.739,375.700 110.564,375.544 110.354 C 375.387 110.144,374.670 109.537,373.951 109.005 C 373.232 108.472,372.610 107.957,372.570 107.860 C 372.530 107.763,372.400 107.684,372.280 107.684 C 372.160 107.684,371.645 107.341,371.134 106.923 C 370.623 106.504,370.141 106.226,370.062 106.305 C 369.983 106.384,369.918 106.318,369.918 106.158 C 369.918 105.998,369.859 105.927,369.786 106.000 C 369.713 106.072,369.471 105.961,369.247 105.753 C 368.867 105.398,368.077 104.928,364.427 102.881 C 363.625 102.432,362.913 102.118,362.847 102.185 C 362.780 102.252,362.725 102.203,362.725 102.076 C 362.725 101.949,362.456 101.778,362.128 101.696 C 361.799 101.613,361.480 101.480,361.419 101.400 C 361.203 101.116,359.040 100.176,358.747 100.238 C 358.657 100.257,358.583 100.174,358.583 100.054 C 358.583 99.935,358.332 99.837,358.025 99.837 C 357.718 99.837,357.525 99.743,357.595 99.630 C 357.666 99.516,357.381 99.358,356.962 99.280 C 355.799 99.062,355.777 98.968,355.733 94.052 C 355.710 91.539,355.614 88.501,355.519 87.302 C 355.187 83.129,355.068 81.953,354.858 80.817 C 354.742 80.188,354.601 79.330,354.545 78.910 C 354.429 78.035,354.196 76.773,354.062 76.294 C 353.972 75.971,353.794 74.915,353.742 74.387 C 353.727 74.237,353.654 74.114,353.580 74.114 C 353.506 74.114,353.432 73.943,353.417 73.733 C 353.347 72.772,352.956 71.099,352.487 69.755 C 352.382 69.455,351.890 67.918,351.392 66.339 C 350.895 64.760,350.299 63.096,350.067 62.641 C 349.835 62.187,349.646 61.640,349.646 61.425 C 349.646 61.211,349.563 61.035,349.462 61.035 C 349.361 61.035,349.156 60.619,349.005 60.109 C 348.579 58.662,347.217 55.586,347.004 55.586 C 346.898 55.586,346.834 55.512,346.860 55.422 C 346.922 55.215,345.552 52.316,345.187 51.880 C 345.036 51.700,344.548 50.867,344.101 50.029 C 343.655 49.191,343.175 48.432,343.034 48.343 C 342.894 48.254,342.858 48.180,342.954 48.178 C 343.050 48.176,342.871 47.837,342.556 47.424 C 342.241 47.011,341.979 46.594,341.972 46.497 C 341.944 46.062,341.733 45.791,341.524 45.920 C 341.398 45.998,341.353 45.968,341.424 45.854 C 341.494 45.740,341.215 45.220,340.803 44.700 C 340.391 44.179,340.054 43.614,340.054 43.444 C 340.054 43.274,339.980 43.181,339.889 43.237 C 339.798 43.294,339.539 42.959,339.312 42.494 C 339.086 42.029,338.824 41.696,338.731 41.754 C 338.637 41.812,338.492 41.645,338.409 41.382 C 338.244 40.863,338.118 40.692,337.061 39.558 C 336.674 39.142,336.414 38.801,336.484 38.801 C 336.554 38.801,336.299 38.433,335.917 37.984 C 334.015 35.746,333.130 34.751,332.169 33.770 C 331.592 33.180,331.175 32.698,331.244 32.698 C 331.313 32.698,331.042 32.428,330.643 32.098 C 330.245 31.768,329.886 31.428,329.847 31.341 C 329.676 30.958,326.008 27.465,325.662 27.355 C 325.451 27.288,325.223 27.020,325.155 26.760 C 325.087 26.499,324.965 26.352,324.884 26.433 C 324.804 26.513,324.543 26.332,324.306 26.030 C 324.068 25.728,323.829 25.527,323.773 25.582 C 323.718 25.638,323.410 25.416,323.089 25.089 C 322.176 24.158,318.430 21.247,318.224 21.308 C 318.122 21.338,318.038 21.267,318.038 21.151 C 318.038 21.035,317.523 20.597,316.894 20.178 C 316.264 19.759,314.587 18.631,313.166 17.673 C 311.746 16.714,310.299 15.804,309.951 15.650 C 309.603 15.496,309.319 15.307,309.319 15.229 C 309.319 15.152,308.951 14.926,308.501 14.727 C 307.729 14.385,307.240 14.119,306.485 13.630 C 306.305 13.514,306.013 13.396,305.835 13.369 C 305.657 13.343,305.478 13.217,305.435 13.091 C 305.393 12.964,305.239 12.861,305.094 12.861 C 304.948 12.861,304.706 12.738,304.556 12.589 C 304.406 12.439,304.215 12.311,304.131 12.306 C 304.047 12.300,303.464 12.029,302.835 11.703 C 302.207 11.378,301.618 11.105,301.527 11.098 C 301.437 11.091,301.019 10.873,300.599 10.614 C 300.180 10.354,299.810 10.170,299.778 10.203 C 299.745 10.236,299.059 9.958,298.252 9.585 C 297.445 9.212,296.589 8.825,296.349 8.726 C 296.109 8.626,295.422 8.327,294.823 8.060 C 294.223 7.793,293.635 7.554,293.515 7.527 C 293.395 7.500,293.021 7.365,292.683 7.227 C 292.346 7.089,291.973 6.975,291.854 6.975 C 291.735 6.975,291.199 6.775,290.662 6.531 C 290.126 6.286,289.576 6.154,289.442 6.238 C 289.305 6.322,289.257 6.292,289.332 6.170 C 289.461 5.962,287.969 5.382,287.589 5.491 C 287.491 5.519,287.206 5.428,286.955 5.288 C 286.703 5.149,286.262 4.990,285.974 4.935 C 285.685 4.880,285.166 4.726,284.820 4.592 C 284.474 4.457,284.142 4.395,284.084 4.454 C 284.025 4.512,283.697 4.415,283.353 4.238 C 283.010 4.060,282.679 3.917,282.618 3.919 C 282.557 3.922,282.482 3.914,282.452 3.902 C 282.422 3.890,282.153 3.854,281.853 3.821 C 281.068 3.735,280.671 3.619,280.534 3.437 C 280.468 3.348,280.052 3.250,279.608 3.219 C 279.165 3.187,278.802 3.087,278.802 2.997 C 278.801 2.907,278.564 2.834,278.274 2.834 C 277.984 2.834,277.136 2.677,276.390 2.486 C 275.644 2.295,274.728 2.100,274.356 2.054 C 273.983 2.007,273.041 1.858,272.262 1.724 C 271.482 1.590,270.550 1.454,270.191 1.423 C 269.831 1.392,269.537 1.346,269.537 1.321 C 269.537 1.177,264.212 0.513,261.362 0.301 C 259.388 0.155,245.531 -0.009,245.410 0.113 M108.107 112.465 C 109.585 112.880,111.181 113.786,112.207 114.793 C 112.717 115.292,113.136 115.639,113.139 115.562 C 113.147 115.352,114.963 118.642,115.047 119.019 C 115.444 120.799,115.505 122.464,115.224 123.847 C 114.964 125.126,113.875 127.520,113.553 127.520 C 113.442 127.520,113.347 127.643,113.341 127.793 C 113.327 128.143,111.102 129.971,110.399 130.209 C 110.105 130.309,109.864 130.468,109.864 130.562 C 109.864 131.112,104.539 131.568,102.779 131.169 C 100.011 130.541,97.913 129.078,96.642 126.889 C 96.322 126.337,95.953 125.813,95.823 125.725 C 95.692 125.637,95.671 125.564,95.776 125.562 C 95.881 125.560,95.874 125.436,95.761 125.286 C 95.648 125.136,95.538 124.735,95.517 124.395 C 95.496 124.054,95.407 123.662,95.320 123.523 C 94.774 122.651,95.380 119.147,96.393 117.317 C 97.083 116.070,98.923 114.117,99.615 113.897 C 99.857 113.821,100.054 113.673,100.054 113.569 C 100.054 113.465,100.398 113.256,100.817 113.104 C 101.237 112.952,101.580 112.744,101.580 112.641 C 101.580 112.538,101.672 112.510,101.783 112.579 C 101.895 112.648,102.039 112.620,102.103 112.517 C 102.166 112.413,102.527 112.320,102.903 112.309 C 103.279 112.298,103.627 112.249,103.676 112.200 C 103.868 112.009,107.191 112.207,108.107 112.465 M221.708 138.692 C 221.719 151.071,221.759 161.787,221.799 162.507 C 221.911 164.574,222.237 166.361,222.634 167.084 C 222.765 167.324,222.879 167.569,222.886 167.629 C 222.954 168.183,224.965 170.463,225.384 170.463 C 225.510 170.463,225.613 170.561,225.613 170.681 C 225.613 170.801,225.687 170.883,225.777 170.864 C 225.866 170.845,226.234 170.964,226.594 171.129 C 227.848 171.704,231.635 171.545,232.916 170.864 C 234.222 170.169,235.858 168.798,235.858 168.399 C 235.858 168.241,236.005 168.056,236.185 167.987 C 236.365 167.918,236.513 167.735,236.514 167.582 C 236.514 167.428,236.670 167.008,236.860 166.649 C 237.733 164.994,237.485 161.024,236.434 159.837 C 236.196 159.567,236.074 159.346,236.163 159.346 C 236.844 159.346,233.766 156.729,232.589 156.307 C 231.527 155.926,228.447 155.752,228.447 156.073 C 228.447 156.209,228.356 156.264,228.245 156.195 C 228.054 156.077,226.936 156.470,226.703 156.738 C 226.643 156.806,226.177 157.077,225.668 157.338 L 224.741 157.813 224.741 146.604 C 224.741 136.079,224.764 135.394,225.123 135.383 C 230.183 135.221,232.976 135.259,234.157 135.505 C 234.913 135.662,236.012 135.848,236.599 135.916 C 237.187 135.985,237.824 136.125,238.016 136.228 C 238.208 136.331,238.463 136.437,238.583 136.464 C 238.960 136.549,239.433 136.713,240.109 136.993 C 240.469 137.142,241.106 137.393,241.526 137.551 C 241.946 137.709,242.436 137.962,242.616 138.113 C 242.796 138.265,243.189 138.498,243.488 138.632 C 244.176 138.938,244.733 139.270,245.597 139.891 C 245.972 140.161,246.334 140.381,246.399 140.381 C 246.707 140.381,250.682 144.234,251.771 145.588 C 252.191 146.109,252.652 146.660,252.796 146.812 C 252.940 146.963,252.998 147.148,252.923 147.222 C 252.849 147.296,252.889 147.357,253.012 147.357 C 253.298 147.357,254.667 149.571,255.170 150.846 C 255.382 151.385,255.612 151.875,255.680 151.935 C 255.966 152.186,256.564 153.725,256.449 153.911 C 256.380 154.023,256.433 154.114,256.567 154.114 C 256.701 154.114,256.754 154.206,256.685 154.317 C 256.616 154.429,256.661 154.583,256.785 154.659 C 256.909 154.736,256.951 154.894,256.879 155.011 C 256.806 155.128,256.866 155.366,257.011 155.541 C 257.156 155.715,257.221 155.858,257.156 155.858 C 257.091 155.858,257.136 156.214,257.256 156.648 C 258.256 160.270,258.106 169.274,257.012 171.318 C 256.901 171.526,256.770 171.933,256.722 172.224 C 256.674 172.514,256.521 173.028,256.383 173.366 C 256.244 173.703,256.131 174.126,256.131 174.305 C 256.131 174.496,256.026 174.566,255.879 174.475 C 255.723 174.378,255.687 174.415,255.784 174.573 C 255.870 174.712,255.786 174.981,255.598 175.169 C 255.409 175.358,255.311 175.602,255.379 175.712 C 255.447 175.823,255.411 175.913,255.298 175.913 C 255.081 175.913,254.466 177.217,254.553 177.493 C 254.582 177.583,254.509 177.657,254.393 177.657 C 254.276 177.657,254.018 177.971,253.819 178.354 C 253.621 178.738,253.324 179.187,253.160 179.351 C 252.995 179.515,252.861 179.731,252.861 179.830 C 252.861 180.115,251.810 181.291,249.809 183.241 C 247.221 185.764,246.793 186.158,246.642 186.158 C 246.569 186.158,246.081 186.452,245.559 186.812 C 245.036 187.172,244.503 187.466,244.375 187.466 C 244.247 187.466,244.141 187.540,244.139 187.629 C 244.138 187.719,243.721 187.984,243.213 188.217 C 242.705 188.451,242.117 188.785,241.907 188.960 C 241.698 189.134,241.526 189.198,241.526 189.101 C 241.526 189.004,241.346 189.087,241.127 189.285 C 240.907 189.484,240.674 189.593,240.609 189.528 C 240.543 189.463,240.159 189.551,239.755 189.723 C 236.288 191.205,229.552 191.957,225.722 191.291 C 225.123 191.187,224.338 191.076,223.978 191.044 C 223.619 191.013,223.300 190.980,223.270 190.970 C 223.240 190.961,223.142 190.940,223.052 190.923 C 222.962 190.906,222.349 190.707,221.689 190.480 C 221.030 190.253,220.465 190.072,220.435 190.077 C 220.404 190.082,220.025 189.938,219.591 189.757 C 219.157 189.576,218.673 189.428,218.515 189.428 C 218.357 189.428,218.166 189.328,218.090 189.206 C 218.015 189.084,217.862 189.041,217.751 189.110 C 217.639 189.179,217.548 189.132,217.548 189.005 C 217.548 188.878,217.474 188.789,217.384 188.808 C 217.149 188.858,216.403 188.535,216.022 188.217 C 215.842 188.068,215.206 187.674,214.608 187.343 C 214.011 187.012,213.391 186.610,213.230 186.449 C 213.070 186.289,212.799 186.158,212.627 186.158 C 212.456 186.158,212.316 186.057,212.316 185.933 C 212.316 185.810,212.147 185.643,211.939 185.564 C 211.732 185.484,211.248 185.120,210.864 184.753 C 208.550 182.549,208.174 182.170,208.174 182.040 C 208.174 181.960,207.905 181.592,207.575 181.220 C 206.796 180.343,206.183 179.499,205.777 178.742 C 204.345 176.077,203.438 174.182,203.544 174.077 C 203.613 174.008,203.539 173.951,203.379 173.951 C 203.219 173.951,203.145 173.895,203.214 173.826 C 203.282 173.757,203.243 173.389,203.127 173.008 C 203.010 172.627,202.891 172.196,202.862 172.050 C 202.834 171.904,202.742 171.716,202.658 171.632 C 202.575 171.549,202.507 171.268,202.507 171.008 C 202.507 170.748,202.439 170.468,202.355 170.384 C 202.187 170.216,202.116 169.893,201.964 168.610 C 201.908 168.131,201.801 167.460,201.727 167.119 C 201.652 166.779,201.565 165.896,201.533 165.158 C 201.500 164.419,201.450 163.717,201.420 163.597 C 201.390 163.477,201.377 152.760,201.391 139.782 L 201.417 116.185 211.553 116.185 L 221.689 116.185 221.708 138.692 M68.447 135.432 C 68.866 135.512,69.564 135.626,69.998 135.685 C 70.431 135.744,71.052 135.893,71.378 136.017 C 71.704 136.141,72.053 136.193,72.152 136.131 C 72.252 136.069,72.368 136.122,72.410 136.248 C 72.452 136.374,72.730 136.503,73.028 136.536 C 73.326 136.568,74.109 136.866,74.768 137.199 C 75.428 137.531,75.994 137.791,76.026 137.777 C 76.144 137.726,78.161 138.965,78.570 139.340 C 78.802 139.553,79.057 139.728,79.136 139.728 C 79.410 139.728,83.142 143.206,83.112 143.433 C 83.098 143.540,83.969 144.680,84.539 145.300 C 84.697 145.472,84.767 145.613,84.694 145.613 C 84.621 145.613,84.761 145.828,85.005 146.090 C 85.250 146.353,85.450 146.732,85.450 146.933 C 85.450 147.134,85.653 147.557,85.901 147.873 C 86.150 148.188,86.295 148.447,86.224 148.447 C 86.153 148.447,86.301 148.851,86.552 149.344 C 86.804 149.838,87.043 150.402,87.084 150.598 C 87.167 151.004,87.583 152.700,87.759 153.351 C 87.824 153.591,87.925 154.131,87.983 154.550 C 88.042 154.970,88.148 155.460,88.219 155.640 C 88.506 156.364,88.541 157.906,88.642 173.896 L 88.746 190.518 78.596 190.518 L 68.447 190.518 68.430 175.095 C 68.411 157.388,68.438 158.208,67.839 157.036 C 66.308 154.042,61.397 154.804,60.903 158.112 C 60.810 158.731,60.717 159.311,60.694 159.401 C 60.672 159.490,60.642 166.529,60.627 175.041 L 60.599 190.518 50.460 190.518 L 40.322 190.518 40.345 174.659 C 40.369 158.350,40.440 156.638,41.223 153.601 C 41.475 152.625,41.703 151.728,41.731 151.608 C 41.779 151.396,41.938 151.002,42.520 149.646 C 42.674 149.286,42.784 148.918,42.763 148.828 C 42.742 148.738,42.812 148.665,42.919 148.665 C 43.026 148.665,43.175 148.420,43.250 148.120 C 43.326 147.820,43.483 147.575,43.601 147.575 C 43.718 147.575,43.815 147.469,43.815 147.339 C 43.815 146.280,49.430 139.946,50.370 139.946 C 50.495 139.946,50.537 139.847,50.463 139.728 C 50.389 139.608,50.427 139.510,50.548 139.510 C 50.669 139.510,51.190 139.225,51.706 138.878 C 52.221 138.531,53.134 138.016,53.733 137.734 C 54.332 137.452,54.883 137.139,54.956 137.039 C 55.030 136.938,55.128 136.871,55.174 136.889 C 55.267 136.925,55.675 136.808,56.349 136.552 C 56.589 136.461,56.834 136.369,56.894 136.349 C 56.954 136.328,57.150 136.254,57.330 136.185 C 57.627 136.070,58.450 135.851,59.292 135.663 C 59.471 135.622,59.986 135.564,60.436 135.533 C 60.885 135.502,61.253 135.428,61.253 135.368 C 61.253 135.207,67.558 135.263,68.447 135.432 M146.158 135.446 C 146.861 135.540,146.881 135.545,148.632 136.113 C 149.274 136.321,149.971 136.524,150.182 136.565 C 150.393 136.606,151.467 137.162,152.568 137.802 C 153.670 138.441,154.787 139.087,155.051 139.237 C 155.315 139.386,155.507 139.607,155.477 139.727 C 155.447 139.847,155.500 139.946,155.596 139.946 C 155.817 139.946,156.437 140.441,157.842 141.737 C 158.974 142.781,159.968 142.778,159.993 141.731 C 159.997 141.574,160.086 141.499,160.191 141.563 C 160.295 141.628,160.564 141.438,160.787 141.140 C 161.011 140.843,161.316 140.599,161.467 140.599 C 161.617 140.599,161.863 140.403,162.012 140.163 C 162.162 139.924,162.356 139.728,162.444 139.728 C 162.531 139.728,163.023 139.446,163.536 139.103 C 164.759 138.284,165.750 137.672,165.886 137.652 C 166.350 137.582,166.975 137.264,166.975 137.097 C 166.975 136.985,167.067 136.894,167.179 136.894 C 167.291 136.894,167.659 136.779,167.997 136.640 C 168.334 136.500,168.659 136.376,168.719 136.364 C 168.779 136.352,168.951 136.264,169.100 136.170 C 169.413 135.971,169.995 135.829,171.226 135.652 C 171.706 135.583,172.196 135.458,172.316 135.374 C 172.552 135.209,177.786 135.273,178.856 135.455 C 179.637 135.587,180.381 135.758,180.381 135.804 C 180.381 135.822,180.529 135.869,180.708 135.909 C 182.026 136.197,183.241 136.595,183.375 136.781 C 183.463 136.903,183.537 136.931,183.539 136.843 C 183.543 136.650,185.236 137.508,185.411 137.792 C 185.479 137.901,185.626 137.934,185.737 137.865 C 185.849 137.796,185.940 137.843,185.940 137.968 C 185.940 138.093,186.267 138.332,186.667 138.499 C 187.067 138.666,187.643 139.036,187.947 139.320 C 188.251 139.604,188.733 140.033,189.018 140.273 C 189.733 140.874,192.152 143.603,192.153 143.810 C 192.154 143.902,192.408 144.322,192.719 144.741 C 193.379 145.633,194.853 149.297,194.999 150.409 C 195.007 150.469,195.141 151.099,195.296 151.809 C 195.604 153.220,195.660 153.581,195.874 155.531 C 196.049 157.130,196.032 154.591,195.997 174.005 L 195.967 190.518 185.838 190.518 L 175.708 190.518 175.647 174.005 C 175.586 157.599,175.583 157.488,175.119 156.621 C 174.862 156.142,174.543 155.774,174.410 155.804 C 174.277 155.834,174.169 155.777,174.169 155.677 C 174.169 155.577,174.046 155.482,173.896 155.466 C 173.747 155.450,173.202 155.375,172.686 155.299 C 171.051 155.059,169.644 156.377,169.210 158.554 C 169.135 158.930,169.039 166.275,168.996 174.877 L 168.918 190.518 158.792 190.518 L 148.665 190.518 148.647 174.550 C 148.637 165.768,148.585 158.319,148.532 157.997 C 148.416 157.295,147.836 155.858,147.668 155.858 C 147.603 155.858,147.619 155.981,147.705 156.131 C 147.790 156.281,147.575 156.145,147.227 155.829 C 146.470 155.142,144.408 155.016,143.931 155.627 C 143.785 155.814,143.662 155.878,143.658 155.770 C 143.649 155.516,142.567 156.767,142.545 157.057 C 142.536 157.177,142.480 157.471,142.422 157.711 C 142.293 158.240,142.128 159.226,142.021 160.109 C 141.977 160.469,141.933 167.458,141.924 175.640 L 141.907 190.518 131.761 190.518 L 121.614 190.518 121.702 172.262 C 121.750 162.221,121.847 153.760,121.918 153.460 C 121.989 153.161,122.112 152.670,122.190 152.371 C 122.269 152.071,122.379 151.531,122.436 151.172 C 122.493 150.812,122.600 150.371,122.674 150.191 C 122.748 150.011,122.821 149.766,122.835 149.646 C 122.849 149.526,123.164 148.790,123.534 148.011 C 123.905 147.232,124.230 146.496,124.256 146.376 C 124.283 146.256,124.489 145.924,124.714 145.638 C 124.939 145.352,125.123 144.979,125.123 144.808 C 125.123 144.637,125.202 144.546,125.298 144.606 C 125.395 144.666,125.655 144.377,125.877 143.965 C 126.100 143.553,126.364 143.215,126.465 143.215 C 126.566 143.215,126.649 143.115,126.649 142.992 C 126.649 142.739,128.590 140.817,129.836 139.837 C 130.293 139.477,130.820 139.035,131.007 138.856 C 131.194 138.676,131.908 138.238,132.594 137.883 C 133.281 137.528,133.842 137.144,133.842 137.029 C 133.842 136.915,133.900 136.879,133.971 136.950 C 134.042 137.021,134.557 136.879,135.115 136.635 C 136.157 136.180,138.153 135.604,139.009 135.513 C 139.273 135.484,139.543 135.407,139.609 135.341 C 139.737 135.213,145.054 135.299,146.158 135.446 M115.313 163.379 L 115.313 190.518 105.177 190.518 L 95.041 190.518 95.041 163.379 L 95.041 136.240 105.177 136.240 L 115.313 136.240 115.313 163.379 M281.660 152.861 C 281.674 161.523,281.701 168.708,281.721 168.828 C 281.858 169.670,282.135 170.463,282.291 170.463 C 282.394 170.463,282.533 170.635,282.601 170.845 C 283.030 172.172,287.956 172.772,287.956 171.496 C 287.956 171.394,288.037 171.359,288.134 171.419 C 288.380 171.571,289.520 169.031,289.473 168.437 C 289.451 168.173,289.445 161.016,289.458 152.534 L 289.482 137.112 299.630 137.112 L 309.777 137.112 309.688 153.951 C 309.596 171.414,309.578 171.920,309.015 173.475 C 308.828 173.992,308.695 174.482,308.721 174.565 C 308.800 174.814,307.517 178.191,307.285 178.345 C 307.166 178.424,307.055 178.682,307.037 178.918 C 307.020 179.154,306.840 179.513,306.636 179.716 C 306.433 179.919,306.267 180.220,306.267 180.384 C 306.267 180.547,305.973 181.004,305.613 181.398 C 305.253 181.791,304.959 182.239,304.959 182.392 C 304.959 182.545,304.861 182.670,304.741 182.670 C 304.621 182.670,304.548 182.747,304.578 182.841 C 304.608 182.935,304.338 183.306,303.978 183.666 C 303.619 184.025,302.932 184.759,302.452 185.296 C 301.973 185.832,301.335 186.432,301.035 186.628 C 300.736 186.824,300.274 187.191,300.009 187.443 C 299.744 187.695,299.470 187.902,299.400 187.902 C 299.330 187.902,299.155 188.001,299.010 188.123 C 298.405 188.631,297.111 189.403,297.108 189.258 C 297.107 189.171,297.033 189.199,296.945 189.319 C 296.777 189.547,295.028 190.547,294.829 190.528 C 294.308 190.480,294.053 190.548,294.152 190.708 C 294.217 190.813,294.051 190.901,293.783 190.904 C 293.516 190.906,292.856 191.071,292.316 191.269 C 291.217 191.673,291.045 191.707,288.264 192.047 C 286.349 192.281,282.072 192.274,282.071 192.036 C 282.071 191.972,281.752 191.898,281.362 191.873 C 280.427 191.813,279.640 191.691,279.237 191.545 C 278.676 191.341,277.610 191.098,277.439 191.136 C 277.349 191.156,277.275 191.074,277.275 190.954 C 277.275 190.834,276.981 190.736,276.621 190.736 C 276.262 190.736,275.967 190.638,275.967 190.518 C 275.967 190.398,275.804 190.300,275.605 190.300 C 275.406 190.300,274.830 190.058,274.326 189.762 C 273.821 189.467,273.347 189.287,273.271 189.363 C 273.195 189.438,273.134 189.401,273.134 189.280 C 273.134 189.159,272.790 188.876,272.371 188.650 C 271.951 188.424,271.608 188.163,271.608 188.070 C 271.608 187.978,271.476 187.902,271.314 187.902 C 270.945 187.902,266.133 183.204,266.315 183.022 C 266.388 182.949,266.328 182.888,266.182 182.888 C 266.035 182.888,265.964 182.808,266.025 182.710 C 266.085 182.612,265.944 182.394,265.710 182.226 C 265.477 182.058,265.286 181.758,265.286 181.559 C 265.286 181.360,265.144 181.080,264.971 180.936 C 264.797 180.792,264.489 180.240,264.287 179.710 C 264.085 179.180,263.837 178.747,263.737 178.747 C 263.638 178.747,263.608 178.612,263.671 178.448 C 263.734 178.283,263.636 177.999,263.453 177.816 C 263.270 177.634,263.065 177.155,262.998 176.753 C 262.930 176.351,262.739 175.580,262.574 175.041 C 262.165 173.708,261.971 172.875,261.890 172.098 C 261.852 171.738,261.752 171.101,261.667 170.681 C 261.583 170.262,261.473 162.537,261.422 153.515 L 261.331 137.112 271.483 137.112 L 281.635 137.112 281.660 152.861 " stroke="none" fill="#ffffff" fill-rule="evenodd"></path><path id="path2" d="M124.417 40.045 C 124.688 40.097,125.080 40.095,125.289 40.041 C 125.497 39.986,125.275 39.944,124.796 39.946 C 124.316 39.948,124.146 39.993,124.417 40.045 M224.842 146.703 C 224.842 152.877,224.870 155.403,224.904 152.316 C 224.939 149.229,224.939 144.177,224.904 141.090 C 224.870 138.003,224.842 140.529,224.842 146.703 M302.442 185.123 L 301.580 186.049 302.507 185.187 C 303.016 184.713,303.433 184.297,303.433 184.261 C 303.433 184.096,303.243 184.261,302.442 185.123 " stroke="none" fill="#ffffff" fill-rule="evenodd"></path><path id="path3" d="" stroke="none" fill="#ffffff" fill-rule="evenodd"></path><path id="path4" d="" stroke="none" fill="#ffffff" fill-rule="evenodd"></path></g></svg>